<svg fill="none" viewBox="0 0 752 1066" xmlns="http://www.w3.org/2000/svg" xmlns:xlink="http://www.w3.org/1999/xlink"><clipPath id="a"><path d="m0 0h752v1066h-752z"/></clipPath><mask id="b" height="347" maskUnits="userSpaceOnUse" width="223" x="325" y="22"><path d="m522.308 361.42-34.573 7.089c-48.442-14.327-148.402-65.795-160.704-157.046-12.302-91.25 41.211-164.2984 69.506-189.4161 43.249 26.4673 133.193 95.6921 146.98 160.8511 13.788 65.159-8.394 146.165-21.209 178.522z" fill="#4fb8aa"/></mask><mask id="c" height="217" maskUnits="userSpaceOnUse" width="200" x="448" y="146"><path d="m448.972 347.193 22.009 14.652c37.665 3.686 121.551-3.916 155.773-63.809 34.222-59.892 17.625-125.669 5.05-151.071-37.476 6.205-119.405 28.954-147.316 70.313-27.91 41.359-35.306 103.843-35.516 129.915z" fill="#4fb8aa"/></mask><mask id="d" height="656" maskUnits="userSpaceOnUse" width="593" x="89" y="333"><path d="m670.353 662.57c66.182-271.182-177.663-376.769-310.69-310.176-155.782 77.983-157.873 282.606-221.296 371.269-63.4237 88.663-74.7562 188.462 25.066 247.941 99.823 59.476 440.739-37.851 506.92-309.034z" fill="#f7cb16"/></mask><g clip-path="url(#a)"><path d="m492.308 371.42-34.573 7.089c-48.442-14.327-148.402-65.795-160.704-157.046-12.302-91.25 41.211-164.2984 69.506-189.4161 43.249 26.4673 133.193 95.6921 146.98 160.8511 13.788 65.159-8.394 146.165-21.209 178.522z" fill="#3fab98" stroke="#3fab98" stroke-width="8"/><g mask="url(#b)"><path d="m445.563 361.42-34.574 7.089c-48.442-14.327-148.401-65.795-160.704-157.046-12.302-91.25 41.212-164.2985 69.507-189.4161 43.248 26.4673 133.192 95.6921 146.98 160.8511 13.787 65.159-8.395 146.165-21.209 178.522z" fill="#4fb8aa"/></g><path d="m445.972 347.193 22.009 14.652c37.665 3.686 121.551-3.916 155.773-63.809 34.222-59.892 17.625-125.669 5.05-151.071-37.476 6.205-119.405 28.954-147.316 70.313-27.91 41.359-35.306 103.843-35.516 129.915z" fill="#3fab98" stroke="#3fab98" stroke-width="8"/><g mask="url(#c)"><path d="m468.256 368.792 22.009 14.651c37.665 3.686 121.55-3.916 155.772-63.808 34.223-59.893 17.626-125.67 5.05-151.072-37.476 6.205-119.405 28.954-147.315 70.313-27.91 41.36-35.307 103.844-35.516 129.916z" fill="#4fb8aa"/></g><path d="m670.353 662.57c66.182-271.182-177.663-376.769-310.69-310.176-155.782 77.983-157.873 282.606-221.296 371.269-63.4237 88.663-74.7562 188.462 25.066 247.941 99.823 59.476 440.739-37.851 506.92-309.034z" fill="#f7b016"/><g mask="url(#d)"><path d="m619.533 561.05c66.181-271.183-177.664-376.77-310.691-310.177-155.782 77.984-157.873 282.606-221.2961 371.269-63.4233 88.663-74.7558 188.463 25.0661 247.941 99.823 59.479 440.739-37.851 506.921-309.033z" fill="#f7cb16"/></g></g></svg>